HIERARCHY
ROOT Hips
{
	OFFSET	0.00	0.00	0.00
	CHANNELS 6 Xposition Yposition Zposition Zrotation Xrotation Yrotation
	JOINT LeftUpLeg
	{
		OFFSET	 0.126116	-0.065224	 0.014019
		CHANNELS 3 Zrotation Xrotation Yrotation
		JOINT LeftLeg
		{
			OFFSET	 0.000000	 0.569914	 0.000000
			CHANNELS 3 Zrotation Xrotation Yrotation
			JOINT LeftFoot
			{
				OFFSET	 0.000000	 0.544423	 0.000000
				CHANNELS 3 Zrotation Xrotation Yrotation
				JOINT LeftToeBase
				{
					OFFSET	 0.000000	 0.207117	 0.000000
					CHANNELS 3 Zrotation Xrotation Yrotation
					End Site
					{
						OFFSET	 0.000000	 0.207117	 0.000000
					}
				}
			}
		}
	}
	JOINT RightUpLeg
	{
		OFFSET	-0.124023	-0.065224	 0.008373
		CHANNELS 3 Zrotation Xrotation Yrotation
		JOINT RightLeg
		{
			OFFSET	 0.000000	 0.570047	 0.000000
			CHANNELS 3 Zrotation Xrotation Yrotation
			JOINT RightFoot
			{
				OFFSET	 0.000000	 0.544354	 0.000000
				CHANNELS 3 Zrotation Xrotation Yrotation
				JOINT RightToeBase
				{
					OFFSET	 0.000000	 0.207540	 0.000000
					CHANNELS 3 Zrotation Xrotation Yrotation
					End Site
					{
						OFFSET	 0.000000	 0.207540	 0.000000
					}
				}
			}
		}
	}
	JOINT Spine
	{
		OFFSET	 0.000184	 0.117403	 0.007763
		CHANNELS 3 Zrotation Xrotation Yrotation
		JOINT Spine1
		{
			OFFSET	 0.000000	 0.137269	 0.000000
			CHANNELS 3 Zrotation Xrotation Yrotation
			JOINT Spine2
			{
				OFFSET	 0.000000	 0.156879	 0.000000
				CHANNELS 3 Zrotation Xrotation Yrotation
				JOINT LeftShoulder
				{
					OFFSET	 0.080501	 0.160143	 0.002496
					CHANNELS 3 Zrotation Xrotation Yrotation
					JOINT LeftArm
					{
						OFFSET	 0.000000	 0.164363	 0.000000
						CHANNELS 3 Zrotation Xrotation Yrotation
						JOINT LeftForeArm
						{
							OFFSET	 0.000000	 0.364576	 0.000000
							CHANNELS 3 Zrotation Xrotation Yrotation
							JOINT LeftHand
							{
								OFFSET	 0.000000	 0.360812	 0.000000
								CHANNELS 3 Zrotation Xrotation Yrotation
								JOINT LeftHandIndex1
								{
									OFFSET	 0.000000	 0.086006	 0.000000
									CHANNELS 3 Zrotation Xrotation Yrotation
									JOINT LeftHandIndex2
									{
										OFFSET	 0.000000	 0.047237	 0.000000
										CHANNELS 3 Zrotation Xrotation Yrotation
										JOINT LeftHandIndex3
										{
											OFFSET	-0.004284	 0.038165	 0.000551
											CHANNELS 3 Zrotation Xrotation Yrotation
											End Site
											{
												OFFSET	-0.004284	 0.038165	 0.000551
											}
										}
									}
								}
							}
						}
					}
				}
				JOINT Neck
				{
					OFFSET	 0.000000	 0.176489	 0.000000
					CHANNELS 3 Zrotation Xrotation Yrotation
					JOINT Head
					{
						OFFSET	 0.000000	 0.077941	 0.001747
						CHANNELS 3 Zrotation Xrotation Yrotation
						End Site
						{
							OFFSET	 0.000000	 0.077941	 0.001747
						}
					}
				}
				JOINT RightShoulder
				{
					OFFSET	-0.080363	 0.159706	-0.000306
					CHANNELS 3 Zrotation Xrotation Yrotation
					JOINT RightArm
					{
						OFFSET	 0.000000	 0.164196	 0.000000
						CHANNELS 3 Zrotation Xrotation Yrotation
						JOINT RightForeArm
						{
							OFFSET	 0.000000	 0.365611	 0.000000
							CHANNELS 3 Zrotation Xrotation Yrotation
							JOINT RightHand
							{
								OFFSET	 0.000000	 0.360648	 0.000000
								CHANNELS 3 Zrotation Xrotation Yrotation
								JOINT RightHandIndex1
								{
									OFFSET	 0.000000	 0.069977	 0.000000
									CHANNELS 3 Zrotation Xrotation Yrotation
									JOINT RightHandIndex2
									{
										OFFSET	 0.000000	 0.052305	 0.000000
										CHANNELS 3 Zrotation Xrotation Yrotation
										JOINT RightHandIndex3
										{
											OFFSET	 0.009002	 0.042196	 0.000782
											CHANNELS 3 Zrotation Xrotation Yrotation
											End Site
											{
												OFFSET	 0.009002	 0.042196	 0.000782
											}
										}
									}
								}
							}
						}
					}
				}
			}
		}
	}
}
MOTION
Frames:    10
Frame Time: 0.03333334
-0.002158	 1.218383	-4.414460	 0.360851	 2.614637	-172.016200	-167.542300	 1.550691	-24.082770	 14.355960	-61.871940	 14.287580	-23.550060	 64.935640	 21.186040	 3.093387	 46.981350	-3.242189	 175.730400	 26.067860	 24.854360	-3.153214	-36.186560	 4.299839	-23.750990	 68.490800	 16.121930	-1.582938	 32.102160	 2.844080	 2.216019	 8.109512	-3.417869	 0.305996	 2.294539	-1.348171	 0.464965	-2.767298	-2.379357	-120.459900	 7.996514	 94.242940	 14.345370	 39.416520	-1.107812	 47.491900	-1.087679	 35.551690	 14.260890	-49.866060	 21.959920	 5.006109	 23.070970	-2.047071	-5.873646	 26.294210	 2.915699	 5.583832	 10.337390	-0.072941	 0.013744	-5.018116	-0.018435	-1.802778	-1.171171	-2.957399	 119.651800	-1.272408	-90.275380	 3.912048	 44.608810	-2.793127	-33.209080	-0.398176	-35.035540	-10.121150	-38.956340	-26.081540	-2.135016	 14.532340	 1.189461	 13.720860	 34.131140	-8.135719	-8.489924	 11.965050	-0.453765
 0.002560	 1.236241	-4.563167	 1.387050	 3.578867	-174.257300	-162.518500	 12.172260	-31.054910	 24.486590	-72.266300	 24.038730	-17.338650	 61.165300	 18.059730	 1.725273	 33.695560	-2.859446	 178.832900	 17.158700	 23.819390	-3.018671	-35.005300	 1.410404	-29.780930	 71.813090	 25.232740	-1.465387	 30.643070	 2.788567	 4.011058	 8.194071	-12.812610	 1.103032	 2.273336	-1.500787	-0.471912	-2.465060	 0.816280	-120.158200	 7.433034	 93.944030	 10.070470	 42.584880	 1.108950	 40.428580	-0.755854	 37.597190	 9.560815	-39.424610	 18.933950	 4.984744	 24.343870	-2.117086	-5.882869	 27.369640	 3.039778	 5.643563	 11.776400	-0.053632	 0.078556	-4.922570	-0.182372	-1.875843	-1.124561	-2.626757	 120.016000	-0.612946	-90.598900	-10.289830	 46.412740	 6.350732	-29.007060	-0.203966	-37.256110	-13.235780	-33.337570	-26.443560	-2.446722	 17.629270	 1.359780	 14.181920	 37.084580	-9.038056	-8.510043	 14.244060	-0.597642
 0.001636	 1.248389	-4.708794	 0.756702	 2.718184	-176.312400	-161.470200	 25.471530	-40.147510	 20.917400	-69.632260	 17.476820	-11.191640	 68.755100	 16.815330	 1.470732	 30.720420	-2.792302	 179.300500	 9.064752	 22.890620	-2.692295	-31.992390	-0.728947	-42.506520	 74.992820	 38.894510	-1.648832	 32.901120	 2.876372	 3.903532	 7.590937	-21.514460	 1.803807	 2.395489	-1.599813	-1.502286	-2.439959	 4.030753	-120.133300	 6.384888	 93.434970	-4.894134	 45.316890	 11.163310	 46.175840	-0.940040	 38.876400	 1.156226	-25.579830	 16.851790	 5.027004	 26.159770	-2.157503	-5.902478	 29.027070	 3.233876	 5.717742	 13.568820	-0.031587	 0.105427	-4.847428	-0.382989	-2.258322	-1.608122	-2.236119	 119.801400	 0.244603	-91.000400	-21.034820	 48.182850	 10.146940	-29.613830	-0.200393	-38.346730	-19.217870	-23.621350	-27.741160	-2.670490	 18.821760	 1.456324	 14.406820	 38.367890	-9.451446	-8.519510	 15.637450	-0.685948
-0.002320	 1.253965	-4.855947	-0.425381	 1.529303	-178.614800	-168.538100	 30.756930	-44.610850	 6.847485	-41.971700	 1.058560	-8.686962	 69.017020	 20.148130	 1.338585	 29.030930	-2.733055	 178.859100	-0.060561	 21.771840	-2.113437	-26.125330	-3.211516	-56.230370	 75.890950	 53.457030	-1.920799	 36.055440	 3.018087	 3.120065	 7.358450	-29.596440	 2.267485	 3.003636	-1.678363	-2.440408	-2.593154	 7.271800	-120.161800	 5.122368	 92.826270	-19.913160	 46.192470	 21.593800	 48.176990	-1.019563	 38.640570	-3.784563	-6.828385	 15.730830	 5.087474	 28.299710	-2.201244	-5.934684	 30.994190	 3.469367	 5.803802	 15.651560	-0.008769	 0.129902	-4.765909	-0.615593	-2.750330	-2.259825	-1.886441	 119.471800	 1.248202	-91.461200	-31.684920	 47.867210	 12.416200	-29.309950	-0.196985	-38.028080	-26.373780	-7.692420	-27.213890	-2.910711	 19.860500	 1.556186	 14.627890	 39.547010	-9.844072	-8.526963	 17.068380	-0.777042
-0.008293	 1.234879	-5.017236	-1.119286	 0.914640	 179.267700	 179.889000	 27.040770	-38.966710	 0.673407	-5.067168	-5.682867	-11.020430	 59.482920	 26.621370	 1.267184	 28.095480	-2.702561	 177.542800	-7.514663	 19.671350	-2.106066	-26.046220	-6.448910	-58.109880	 74.641280	 60.282590	-2.692550	 43.718270	 3.443928	 2.428441	 7.224035	-35.379920	 2.537802	 3.252497	-1.693432	-3.079111	-2.546570	 9.840816	-119.915700	 3.971468	 92.255410	-29.967310	 46.499000	 26.818390	 43.787660	-0.920002	 36.538280	-4.912165	 11.408460	 15.726130	 4.985093	 28.580780	-2.066898	-5.971056	 32.704480	 3.679306	 5.899416	 17.963440	 0.013013	 0.098607	-4.845796	-0.752295	-2.739524	-2.653922	-1.696671	 119.431400	 1.748349	-91.695530	-35.338230	 39.011420	 12.161100	-28.193670	-0.202692	-36.061710	-30.181330	 14.273580	-23.578900	-2.964892	 21.014120	 1.577123	 14.918950	 40.991440	-10.343280	-8.532332	 18.590950	-0.874563
-0.017277	 1.198221	-5.180937	-1.377358	 0.634889	 177.210300	-176.735800	 37.830100	-36.765460	 2.234365	-16.390650	-10.663700	-38.006080	 69.059480	 51.467830	 1.232370	 27.633660	-2.688089	 175.183300	-11.750130	 16.621010	-2.736378	-32.411380	-9.818732	-51.927110	 73.975360	 62.020360	-4.173590	 54.487870	 4.458544	 1.629058	 7.043077	-38.313920	 2.997943	 3.250190	-1.929230	-3.639869	-2.439833	 11.839470	-119.488300	 2.866716	 91.704660	-41.718100	 45.329320	 32.121920	 46.251090	-1.119172	 33.033100	-12.313410	 27.019550	 16.682920	 4.778046	 27.652880	-1.816789	-6.011965	 34.281680	 3.877796	 6.003635	 20.472060	 0.032347	 0.029884	-5.032608	-0.829295	-2.396397	-2.878291	-1.649949	 119.575700	 1.928292	-91.789470	-21.186410	 27.050490	 4.175945	-46.592090	-0.858251	-32.893420	-29.650910	 35.465150	-14.825220	-2.895959	 22.266200	 1.543014	 15.279980	 42.636770	-10.938890	-8.535066	 20.204170	-0.978726
-0.029880	 1.192177	-5.355256	-2.672953	 1.174330	 176.670800	-177.123700	 36.536800	-37.439830	 3.597807	-25.334620	-3.935129	-10.981710	 67.932890	 27.022010	 1.320972	 28.801650	-2.725431	 171.813700	-15.963670	 14.538500	-3.055606	-35.333110	-2.844589	 2.588362	 59.618460	 10.741590	-7.361171	 62.817110	 10.741060	 1.160614	 8.585898	-39.075710	 3.129101	 2.708844	-2.140054	-4.255069	-2.354364	 13.124220	-120.173000	 3.393952	 91.985150	-42.026890	 44.995020	 33.525290	 43.126050	-1.142192	 28.419420	-10.188750	 32.267850	 12.957750	 4.546763	 23.899080	-1.643761	-5.925018	 30.464140	 3.405323	 5.832829	 16.354100	-0.001744	-0.043099	-5.148315	-0.772420	-2.203505	-2.593007	-1.378948	 119.459000	 1.530558	-91.594140	-15.138000	 27.645490	 1.619856	-50.774020	-1.072324	-28.505710	-17.897300	 41.590250	-20.615930	-2.827865	 23.825300	 1.516694	 15.660840	 44.223460	-11.543570	-8.534669	 21.821640	-1.084204
-0.043711	 1.201334	-5.558777	-3.899730	 1.936088	 177.453600	 179.890700	 28.699050	-34.953490	 4.707892	-31.766730	 0.558233	 3.920436	 64.544040	 13.103280	 1.403533	 29.868100	-2.761723	 166.685700	-11.754660	 16.595180	-4.845544	-48.325120	 2.222632	 15.911370	 41.536820	-5.840289	-7.962549	 62.248340	 13.455490	 0.480709	 10.225960	-37.149860	 3.521173	 2.152547	-2.846522	-4.922380	-2.180870	 14.185820	-121.162300	 4.371661	 92.510590	-37.025970	 45.300610	 31.739710	 42.692310	-1.347145	 21.346210	-10.159810	 28.261050	 4.494924	 4.369281	 20.198330	-1.549104	-5.869006	 25.581920	 2.834256	 5.591488	 10.521330	-0.070400	-0.124713	-5.210546	-0.647846	-2.187114	-2.202486	-0.924617	 119.272500	 0.998162	-91.332890	-7.033269	 36.166230	-3.278054	-49.115330	-1.199072	-21.383130	-3.219011	 33.880550	-34.181650	-2.743894	 25.654020	 1.482095	 16.112600	 45.938510	-12.234820	-8.530289	 23.652340	-1.205122
-0.048226	 1.223089	-5.707363	-3.388523	 2.574721	-178.241200	 178.611400	 22.237580	-30.772460	 5.485533	-35.799760	 0.638509	-3.879262	 71.475270	 17.637000	 1.354354	 29.235380	-2.739933	 165.226600	 6.000373	 20.877620	-10.584490	-67.737750	-1.759116	 11.952500	 56.688210	-5.794058	-1.574001	 31.988550	 2.894590	 0.940666	 10.237250	-34.890710	 4.147985	 1.619003	-4.075057	-5.103442	-1.481742	 14.521990	-122.025900	 5.636266	 93.191010	-17.750230	 46.699250	 18.468500	 35.154040	-1.281527	 13.637630	-9.524512	 8.840374	-7.333467	 4.485478	 20.617230	-1.714342	-5.861689	 22.708890	 2.510851	 5.385141	 5.600182	-0.146718	-0.166172	-5.049130	-0.425168	-2.751437	-1.965371	-0.074947	 119.063100	 0.612506	-91.142350	-15.848940	 47.122510	 3.606938	-13.514970	-0.203078	-13.192310	-13.238640	 15.023060	-43.280410	-2.676610	 26.779060	 1.450485	 16.317690	 46.665130	-12.540680	-8.525977	 24.669980	-1.273158
-0.048278	 1.252772	-5.912755	-2.523254	 1.717732	-175.104900	 178.432400	 10.429720	-27.234110	 4.650671	-31.639970	 4.526772	 1.668559	 77.805690	 7.219541	 1.478567	 30.818830	-2.795924	 164.088300	 23.195430	 28.894300	-7.271666	-58.970540	 3.592099	 0.760912	 64.568210	-0.144378	-1.703210	 33.409710	 3.461861	 0.584664	 9.349903	-26.887120	 4.779993	 2.171913	-5.583302	-5.034310	-1.862951	 14.331280	-121.542800	 6.900382	 93.789110	 4.890925	 42.788950	 4.143959	 29.850140	-1.378705	 3.302091	-19.985810	-24.227460	-26.485930	 4.638832	 19.089570	-1.673983	-5.863543	 21.608380	 2.388838	 5.335928	 4.443283	-0.167150	-0.164018	-4.973828	-0.192263	-2.322338	-2.326145	 0.552401	 118.596400	 0.159223	-90.912460	-7.797823	 47.641700	-0.229711	-7.006063	-0.201350	-2.951381	-16.465300	 1.238533	-45.418330	-2.507178	 26.366370	 1.368216	 16.040520	 45.675830	-12.126210	-8.527680	 24.305190	-1.248706
